<svg width="108" height="160" viewBox="0 0 108 160" fill="none" xmlns="http://www.w3.org/2000/svg">
<g filter="url(#filter0_d_3_15)">
<path fill-rule="evenodd" clip-rule="evenodd" d="M90.7572 69.4L90.429 68.6628C90.1417 67.9081 89.813 67.1698 89.4444 66.4513L88.241 63.7484C87.4953 63.2958 86.7803 62.7945 86.1007 62.2477L85.116 60.0362C84.7878 59.299 84.4961 58.6437 83.5491 58.2802C83.0228 57.8175 82.5353 57.3124 82.0915 56.77L81.9092 56.3605C81.3177 55.8982 80.7634 55.3903 80.2514 54.8413C79.7612 54.3861 79.2442 53.9608 78.7029 53.5678L76.8813 52.1215L76.5531 51.3844C72.6027 48.6943 68.3321 46.5075 63.8404 44.8746L41.3158 54.9032L37.7417 32.5473C37.5253 30.9707 37.9433 29.3727 38.904 28.1041C39.4248 27.511 40.0679 27.0377 40.7889 26.7166C41.51 26.3956 42.292 26.2344 43.0813 26.2442L60.9872 25.2402L60.4428 14.0979L41.5158 12.8085C39.1558 12.9322 36.8482 13.5509 34.7428 14.6242C32.6373 15.6976 30.7811 17.2017 29.2947 19.0388C27.8082 20.876 26.7246 23.0053 26.1143 25.2883C25.5041 27.5714 25.3807 29.9573 25.7522 32.2912L29.9109 57.7236L12.137 65.6371C8.6246 59.3671 2.85405 54.672 -3.99921 52.5081C-10.8525 50.3442 -18.2729 50.8744 -24.7489 53.9906C-31.6069 56.7782 -37.0856 62.1628 -39.9918 68.9714C-42.8979 75.7801 -42.996 83.4612 -40.2648 90.3419C-38.0458 95.3415 -34.3552 99.5458 -29.6853 102.394C-25.0154 105.242 -19.5881 106.599 -14.1273 106.283C-13.785 106.948 -13.4806 107.632 -13.2156 108.331L-12.0851 110.87C-11.7978 111.625 -11.4691 112.363 -11.1005 113.082L-9.45945 116.767C-3.20924 129.432 7.72656 139.165 21.0305 143.904C34.3343 148.644 48.9608 148.016 61.8102 142.156C75.1357 136.726 85.7632 126.232 91.3609 112.976C96.9586 99.7202 97.0693 84.7851 91.6689 71.4477L90.7572 69.4ZM57.2518 131.917C47.0157 136.98 35.1896 137.776 24.3673 134.131C13.5451 130.486 4.61034 122.697 -0.477106 112.474C-4.40052 103.492 -4.84837 93.3737 -1.73377 84.0808L61.2532 56.0372C70.3658 60.0208 77.6376 67.2993 81.6128 76.4157C85.6694 87.0114 85.3871 98.7789 80.8271 109.168C76.2671 119.557 67.7968 127.731 57.2518 131.917ZM-29.8805 86.111C-30.6847 84.0233 -31.0676 81.797 -31.0071 79.5606C-30.9465 77.3241 -30.4436 75.1218 -29.5275 73.0807C-28.6115 71.0395 -27.3002 69.2 -25.6696 67.6683C-24.0389 66.1365 -22.121 64.9428 -20.0266 64.1561C-16.2402 62.2384 -11.881 61.7792 -7.77807 62.8659C-3.67515 63.9525 -0.114705 66.5092 2.22616 70.0497L-10.6333 75.7751C-12.4573 80.195 -13.6909 84.8361 -14.3021 89.5784C-14.1894 89.7896 -14.0919 90.0085 -14.0104 90.2336L-14.1545 92.5551C-14.195 93.1431 -14.1946 93.7333 -14.1533 94.3212C-17.2902 94.6385 -20.4513 94.0301 -23.2463 92.571C-26.0412 91.112 -28.3475 88.8662 -29.8805 86.111Z" fill="#F1A3DE"/>
</g>
<defs>
<filter id="filter0_d_3_15" x="-54.2446" y="0.808472" width="161.885" height="158.246" filterUnits="userSpaceOnUse" color-interpolation-filters="sRGB">
<feFlood flood-opacity="0" result="BackgroundImageFix"/>
<feColorMatrix in="SourceAlpha" type="matrix" values="0 0 0 0 0 0 0 0 0 0 0 0 0 0 0 0 0 0 127 0" result="hardAlpha"/>
<feOffset/>
<feGaussianBlur stdDeviation="6"/>
<feComposite in2="hardAlpha" operator="out"/>
<feColorMatrix type="matrix" values="0 0 0 0 0.945098 0 0 0 0 0.639216 0 0 0 0 0.870588 0 0 0 1 0"/>
<feBlend mode="normal" in2="BackgroundImageFix" result="effect1_dropShadow_3_15"/>
<feBlend mode="normal" in="SourceGraphic" in2="effect1_dropShadow_3_15" result="shape"/>
</filter>
</defs>
</svg>
