<svg width="74" height="191" viewBox="0 0 74 191" fill="none" xmlns="http://www.w3.org/2000/svg">
<g filter="url(#filter0_d_3_16)">
<path d="M28.2515 24.1559C27.3972 24.1231 26.4782 24.2353 25.8007 24.9764C24.9135 25.7979 24.687 27.0874 25.0893 28.1355L31.0437 43.6471L57.8382 113.449L36.2698 161.893L16.6894 153.175C15.239 152.529 13.417 153.108 12.7067 154.704C12.0609 156.154 12.6401 157.976 14.2355 158.686L59.0529 178.64C60.5033 179.286 62.3253 178.707 63.0356 177.112C63.6814 175.661 63.1023 173.839 61.5068 173.129L41.7814 164.347L63.3498 115.903L113.238 96.7527L125.187 92.1663C126.669 93.5213 128.425 94.6509 130.311 95.4904C140.463 100.011 152.412 95.4243 156.932 85.2714C158.869 80.9202 159.162 76.3584 157.972 72.0052L170.502 66.1133C172.033 65.405 172.663 63.6 171.89 62.2131C171.182 60.6813 169.377 60.0514 167.99 60.8242L155.671 66.6356C153.529 63.2489 150.629 60.3938 146.713 58.6502C137.575 54.5819 127.063 57.8958 121.738 65.9524L45.5918 32.05L38.6401 13.3137C38.0768 11.8464 36.4009 10.9265 34.869 11.6348C33.4017 12.198 32.4818 13.8739 33.19 15.4058L38.1947 28.7567L29.3473 24.8175C28.8963 24.2691 28.6062 24.14 28.2515 24.1559ZM144.671 74.9464C145.058 75.6399 145.509 76.1883 146.089 76.4466C146.814 76.7694 147.668 76.8022 148.507 76.4804L152.683 74.5165C153.229 77.1928 152.857 79.9813 151.63 82.7371C148.466 89.8441 140.016 93.2077 132.764 89.9789C125.658 86.8146 122.294 78.3654 125.523 71.1134C128.687 64.0064 137.136 60.6428 144.388 63.8716C146.854 64.9694 148.997 66.7924 150.446 69.0019L146.06 71.0463C144.528 71.7545 143.898 73.5596 144.671 74.9464ZM62.7896 109.745L46.7772 68.0312L104.358 93.6679L62.7896 109.745ZM112.324 90.6103L58.6587 66.7172L48.553 39.4512L119.333 70.9643C117.733 76.5086 118.422 82.3768 121.337 87.1503L112.324 90.6103ZM33.3238 32.6707L41.011 36.0932L51.1166 63.3592L44.0097 60.195L36.7679 41.3295L33.3238 32.6707Z" fill="#F1A3DE"/>
</g>
<defs>
<filter id="filter0_d_3_16" x="0.447418" y="-0.608866" width="183.774" height="191.509" filterUnits="userSpaceOnUse" color-interpolation-filters="sRGB">
<feFlood flood-opacity="0" result="BackgroundImageFix"/>
<feColorMatrix in="SourceAlpha" type="matrix" values="0 0 0 0 0 0 0 0 0 0 0 0 0 0 0 0 0 0 127 0" result="hardAlpha"/>
<feOffset/>
<feGaussianBlur stdDeviation="6"/>
<feComposite in2="hardAlpha" operator="out"/>
<feColorMatrix type="matrix" values="0 0 0 0 1 0 0 0 0 1 0 0 0 0 1 0 0 0 0.8 0"/>
<feBlend mode="normal" in2="BackgroundImageFix" result="effect1_dropShadow_3_16"/>
<feBlend mode="normal" in="SourceGraphic" in2="effect1_dropShadow_3_16" result="shape"/>
</filter>
</defs>
</svg>
