<svg width="133" height="207" viewBox="0 0 133 207" fill="none" xmlns="http://www.w3.org/2000/svg">
<g filter="url(#filter0_d_3_9)">
<path d="M17.869 93.424C17.273 94.037 16.7415 94.795 16.8389 95.7944C16.8558 97.0034 17.6625 98.0345 18.7106 98.4369L34.2222 104.391L104.024 131.186L125.593 179.629L106.012 188.347C104.562 188.993 103.773 190.734 104.484 192.33C105.129 193.78 106.871 194.569 108.466 193.858L153.284 173.904C154.734 173.259 155.523 171.517 154.812 169.922C154.167 168.471 152.425 167.683 150.83 168.393L131.104 177.175L109.536 128.732L128.686 78.8432L133.273 66.8951C135.272 66.7003 137.286 66.1509 139.172 65.3114C149.325 60.7911 153.911 48.843 149.391 38.6902C147.453 34.339 144.26 31.0686 140.228 29.0401L144.233 15.7867C144.732 14.1743 143.812 12.4984 142.264 12.1448C140.652 11.6461 138.976 12.566 138.622 14.1138L134.698 27.1577C130.748 26.4832 126.686 26.7277 122.769 28.4712C113.632 32.5395 109.06 42.5693 111.485 51.9175L35.3384 85.8199L16.7631 78.449C15.2957 77.8857 13.4907 78.5156 12.992 80.128C12.4288 81.5953 13.0586 83.4003 14.671 83.899L27.9414 89.1133L19.0939 93.0524C18.3846 93.0207 18.0945 93.1498 17.869 93.424ZM133.514 40.8929C134.288 41.0697 134.997 41.1015 135.577 40.8432C136.302 40.5203 136.898 39.9074 137.22 39.0689L138.555 34.6511C140.91 36.0359 142.733 38.1787 143.96 40.9344C147.124 48.0414 143.97 56.5711 136.718 59.7999C129.611 62.9641 121.081 59.8101 117.852 52.5581C114.688 45.4512 117.842 36.9215 125.094 33.6927C127.56 32.5949 130.348 32.2223 132.96 32.6236L131.545 37.251C131.046 38.8634 131.966 40.5393 133.514 40.8929ZM104.585 125.027L62.8709 109.015L120.452 83.3784L104.585 125.027ZM123.51 75.413L69.8446 99.3061L42.82 88.5716L113.6 57.0585C116.65 61.957 121.472 65.3714 126.969 66.3995L123.51 75.413ZM27.5908 95.3521L35.278 91.9295L62.3026 102.664L55.1956 105.828L36.3301 98.5865L27.5908 95.3521Z" fill="white"/>
</g>
<defs>
<filter id="filter0_d_3_9" x="0.789734" y="0.00863647" width="166.288" height="206.115" filterUnits="userSpaceOnUse" color-interpolation-filters="sRGB">
<feFlood flood-opacity="0" result="BackgroundImageFix"/>
<feColorMatrix in="SourceAlpha" type="matrix" values="0 0 0 0 0 0 0 0 0 0 0 0 0 0 0 0 0 0 127 0" result="hardAlpha"/>
<feOffset/>
<feGaussianBlur stdDeviation="6"/>
<feComposite in2="hardAlpha" operator="out"/>
<feColorMatrix type="matrix" values="0 0 0 0 1 0 0 0 0 1 0 0 0 0 1 0 0 0 0.8 0"/>
<feBlend mode="normal" in2="BackgroundImageFix" result="effect1_dropShadow_3_9"/>
<feBlend mode="normal" in="SourceGraphic" in2="effect1_dropShadow_3_9" result="shape"/>
</filter>
</defs>
</svg>
