<svg width="38" height="42" viewBox="0 0 38 42" fill="none" xmlns="http://www.w3.org/2000/svg">
<g filter="url(#filter0_d_3_53)">
<path d="M23.7784 18.7784C23.7784 22.5582 20.7884 26.3381 19.5387 27.7528C19.2476 28.0824 18.7524 28.0824 18.4612 27.7528C17.2116 26.3381 14.2216 22.5582 14.2216 18.7784C14.2216 17.1856 15.4162 14 19 14C22.5838 14 23.7784 17.1856 23.7784 18.7784Z" stroke="#F1A3DE" stroke-width="2.5" stroke-linejoin="round"/>
<path d="M19 20.3712C19.8797 20.3712 20.5928 19.658 20.5928 18.7784C20.5928 17.8987 19.8797 17.1856 19 17.1856C18.1203 17.1856 17.4072 17.8987 17.4072 18.7784C17.4072 19.658 18.1203 20.3712 19 20.3712Z" stroke="#F1A3DE" stroke-width="2.5" stroke-linejoin="round"/>
</g>
<defs>
<filter id="filter0_d_3_53" x="0.971619" y="0.75" width="36.0567" height="40.5" filterUnits="userSpaceOnUse" color-interpolation-filters="sRGB">
<feFlood flood-opacity="0" result="BackgroundImageFix"/>
<feColorMatrix in="SourceAlpha" type="matrix" values="0 0 0 0 0 0 0 0 0 0 0 0 0 0 0 0 0 0 127 0" result="hardAlpha"/>
<feOffset/>
<feGaussianBlur stdDeviation="6"/>
<feComposite in2="hardAlpha" operator="out"/>
<feColorMatrix type="matrix" values="0 0 0 0 0.945098 0 0 0 0 0.639216 0 0 0 0 0.870588 0 0 0 1 0"/>
<feBlend mode="normal" in2="BackgroundImageFix" result="effect1_dropShadow_3_53"/>
<feBlend mode="normal" in="SourceGraphic" in2="effect1_dropShadow_3_53" result="shape"/>
</filter>
</defs>
</svg>
